<svg width="18" height="16" viewBox="0 0 18 16" fill="none" xmlns="http://www.w3.org/2000/svg">
<path id="icon" d="M1 9C0.730994 9 0.497076 8.90058 0.298245 8.70175C0.0994151 8.50292 0 8.269 0 8C0 7.7193 0.0994151 7.48538 0.298245 7.29824C0.497076 7.09941 0.730994 7 1 7H17C17.2807 7 17.5146 7.09941 17.7018 7.29824C17.9006 7.48538 18 7.7193 18 8C18 8.269 17.9006 8.50292 17.7018 8.70175C17.5146 8.90058 17.2807 9 17 9H1ZM10.7018 15.7018C10.5263 15.9006 10.2924 16 10 16C9.73099 16 9.49708 15.9006 9.29825 15.7018C9.09942 15.5029 9 15.269 9 15C9 14.7076 9.09942 14.4737 9.29825 14.2982L16.193 7.40351C16.2515 7.34503 16.2924 7.43275 16.3158 7.66667C16.3392 7.88889 16.3392 8.11696 16.3158 8.35088C16.2924 8.5731 16.2515 8.65497 16.193 8.59649L9.29825 1.70175C9.09942 1.51462 9 1.2807 9 0.999999C9 0.719297 9.09942 0.485379 9.29825 0.298244C9.49708 0.0994148 9.73099 0 10 0C10.2924 0 10.5263 0.0994148 10.7018 0.298244L17.5965 7.19298C17.8187 7.40351 17.9298 7.67251 17.9298 8C17.9298 8.31579 17.8187 8.58479 17.5965 8.80702L10.7018 15.7018Z" fill="#0D0D0D"/>
</svg>
