<svg width="20" height="20" viewBox="0 0 20 20" fill="none" xmlns="http://www.w3.org/2000/svg">
<g id="Iconly/Bold/Document">
<g id="Document">
<path id="Document_2" fill-rule="evenodd" clip-rule="evenodd" d="M5.81 0H14.191C17.28 0 19 1.78 19 4.83V15.16C19 18.26 17.28 20 14.191 20H5.81C2.77 20 1 18.26 1 15.16V4.83C1 1.78 2.77 0 5.81 0ZM6.08005 4.66V4.65H9.06905C9.50005 4.65 9.85005 5 9.85005 5.429C9.85005 5.87 9.50005 6.22 9.06905 6.22H6.08005C5.64905 6.22 5.30005 5.87 5.30005 5.44C5.30005 5.01 5.64905 4.66 6.08005 4.66ZM6.08005 10.74H13.9201C14.35 10.74 14.7001 10.39 14.7001 9.96001C14.7001 9.53001 14.35 9.17901 13.9201 9.17901H6.08005C5.64905 9.17901 5.30005 9.53001 5.30005 9.96001C5.30005 10.39 5.64905 10.74 6.08005 10.74ZM6.07996 15.31H13.92C14.319 15.27 14.62 14.929 14.62 14.53C14.62 14.12 14.319 13.78 13.92 13.74H6.07996C5.77996 13.71 5.48996 13.85 5.32996 14.11C5.16996 14.36 5.16996 14.69 5.32996 14.95C5.48996 15.2 5.77996 15.35 6.07996 15.31Z" fill="white"/>
</g>
</g>
</svg>
