<svg width="18" height="18" viewBox="0 0 18 18" fill="none" xmlns="http://www.w3.org/2000/svg">
<path id="icon" d="M11 11.2847C11 10.8808 10.9181 10.5386 10.7544 10.2581C10.6023 9.96632 10.3743 9.74753 10.0702 9.60167C9.77778 9.44459 9.42105 9.36604 9 9.36604C8.60234 9.36604 8.25146 9.44459 7.94737 9.60167C7.64328 9.74753 7.40936 9.96632 7.24561 10.2581C7.08187 10.5386 7 10.8808 7 11.2847V18H4C3.28655 18 2.61988 17.8261 2 17.4782C1.39181 17.1304 0.906433 16.6648 0.54386 16.0813C0.181287 15.4867 0 14.8471 0 14.1627V8.64234C0 8.12621 0.0994151 7.63813 0.298245 7.17811C0.508772 6.70686 0.80117 6.29171 1.17544 5.93266L6.17544 1.13603C6.69006 0.631121 7.28655 0.294515 7.96491 0.126211C8.65497 -0.0420908 9.34503 -0.0420908 10.0351 0.126211C10.7251 0.294515 11.3216 0.631121 11.8246 1.13603L16.8246 5.93266C17.1988 6.29171 17.4854 6.70686 17.6842 7.17811C17.8947 7.63813 18 8.12621 18 8.64234V14.1627C18 14.8471 17.8187 15.4867 17.4561 16.0813C17.1053 16.6648 16.6199 17.1304 16 17.4782C15.3918 17.8261 14.7251 18 14 18H11V11.2847ZM12 18H6V16.0813H12V18Z" fill="white"/>
</svg>
