<svg width="20" height="20" viewBox="0 0 20 20" fill="none" xmlns="http://www.w3.org/2000/svg">
<g id="icon_filled/Star_circle">
<path id="Exclude" fill-rule="evenodd" clip-rule="evenodd" d="M10 0C4.47715 0 0 4.47715 0 10C0 15.5228 4.47715 20 10 20C15.5228 20 20 15.5228 20 10C20 4.47715 15.5228 0 10 0ZM11.3449 5.46591C10.7947 4.35104 9.20494 4.35104 8.65472 5.46591L7.8663 7.06343L6.10332 7.31961C4.87299 7.49839 4.38173 9.01035 5.272 9.87815L6.5477 11.1216L6.24655 12.8775C6.03639 14.1029 7.32253 15.0373 8.42297 14.4588L9.99982 13.6298L11.5767 14.4588C12.6771 15.0373 13.9633 14.1029 13.7531 12.8775L13.4519 11.1216L14.7276 9.87815C15.6179 9.01035 15.1267 7.49839 13.8963 7.31961L12.1334 7.06343L11.3449 5.46591Z" fill="white"/>
</g>
</svg>
