<svg width="16" height="17" viewBox="0 0 16 17" fill="none" xmlns="http://www.w3.org/2000/svg">
<path id="icon" d="M14.7808 6.46971C15.3131 6.75975 15.6727 7.17409 15.8597 7.71274C16.0468 8.23758 16.0468 8.76932 15.8597 9.30797C15.6727 9.83281 15.3131 10.2403 14.7808 10.5303L3.68982 16.704C3.15756 16.9803 2.60373 17.0631 2.02832 16.9526C1.45291 16.8422 0.971004 16.5797 0.582603 16.1654C0.194201 15.7372 0 15.2262 0 14.6323V2.36769C0 1.77379 0.194201 1.26967 0.582603 0.855328C0.971004 0.427171 1.45291 0.157846 2.02832 0.0473543C2.60373 -0.0631385 3.15756 0.0197302 3.68982 0.295961L14.7808 6.46971Z" fill="white"/>
</svg>
