<svg width="28" height="28" viewBox="0 0 28 28" fill="none" xmlns="http://www.w3.org/2000/svg">
<g id="Frame 1">
<g id="Group 920">
<g id="Group 919">
<ellipse id="Ellipse 3" cx="14.095" cy="14.0575" rx="13.905" ry="13.6829" fill="#0D0D0D"/>
<g id="Group 7">
<path id="M" d="M20.1293 6.31226V15.9155H18.0579V9.96109L14.2211 16.3511H13.969L10.1323 9.94293V15.9155H8.06079V6.31226H10.2944L14.0951 12.6659L17.9138 6.31226H20.1293Z" fill="white"/>
<path id="&#208;&#158;" d="M14.0948 21.8328C15.7793 21.8328 17.2034 21.2529 18.367 20.0931C19.5417 18.9223 20.1291 17.4975 20.1291 15.8186H18.0365C18.0365 17.0115 17.6376 18.0056 16.8397 18.8008C16.0528 19.5851 15.2584 19.9772 14.0948 19.9772C12.9312 19.9772 12.1312 19.5851 11.3333 18.8008C10.5465 18.0056 10.1531 17.0115 10.1531 15.8186H8.06055C8.06055 17.4975 8.64236 18.9223 9.80599 20.0931C10.9807 21.2529 12.4103 21.8328 14.0948 21.8328Z" fill="white"/>
<path id="&#208;&#158;_2" opacity="0.48" d="M14.0949 9.80443C12.4104 9.80443 10.9863 10.3843 9.8227 11.5441C8.64799 12.7149 8.06063 14.1397 8.06063 15.8186L10.1532 15.8186C10.1532 14.6257 10.5521 13.6316 11.35 12.8364C12.1369 12.0522 12.9313 11.66 14.0949 11.66C15.2585 11.66 16.0585 12.0522 16.8564 12.8364C17.6432 13.6316 18.0366 14.6257 18.0366 15.8186L20.1292 15.8186C20.1292 14.1397 19.5473 12.7149 18.3837 11.5441C17.209 10.3843 15.7794 9.80443 14.0949 9.80443Z" fill="white"/>
</g>
</g>
</g>
</g>
</svg>
