<svg width="24" height="24" viewBox="0 0 24 24" fill="none" xmlns="http://www.w3.org/2000/svg">
<g id="TikTok - Negative" clip-path="url(#clip0_8_80)">
<path id="Vector" d="M17.0725 -1.52588e-05H13.0278V16.3478C13.0278 18.2957 11.4722 19.8957 9.53626 19.8957C7.60034 19.8957 6.04469 18.2957 6.04469 16.3478C6.04469 14.4348 7.56577 12.8695 9.43257 12.8V8.69565C5.31872 8.76519 2 12.1391 2 16.3478C2 20.5913 5.38786 24 9.57085 24C13.7538 24 17.1416 20.5565 17.1416 16.3478V7.96518C18.6627 9.07825 20.5295 9.73912 22.5 9.77392V5.66955C19.4579 5.5652 17.0725 3.06085 17.0725 -1.52588e-05Z" fill="white"/>
</g>
<defs>
<clipPath id="clip0_8_80">
<rect width="24" height="24" fill="white"/>
</clipPath>
</defs>
</svg>
