<svg width="32" height="32" viewBox="0 0 32 32" fill="none" xmlns="http://www.w3.org/2000/svg">
<g id="Ucoin" clip-path="url(#clip0_754_127)">
<path id="Vector" d="M16 32C24.8366 32 32 24.8366 32 16C32 7.16344 24.8366 0 16 0C7.16344 0 0 7.16344 0 16C0 24.8366 7.16344 32 16 32Z" fill="#FED500"/>
<path id="Vector_2" d="M16 29.5791C23.4995 29.5791 29.5791 23.4995 29.5791 16C29.5791 8.50046 23.4995 2.4209 16 2.4209C8.50046 2.4209 2.4209 8.50046 2.4209 16C2.4209 23.4995 8.50046 29.5791 16 29.5791Z" fill="#0D0D0D"/>
<path id="Vector_3" fill-rule="evenodd" clip-rule="evenodd" d="M8.40967 8.55231H10.5569C11.1643 8.55231 11.7467 8.79356 12.1761 9.223C12.6056 9.65244 12.8468 10.2349 12.8468 10.8422V16.7211C12.8468 17.3283 13.088 17.9106 13.5174 18.34C13.9467 18.7693 14.529 19.0105 15.1362 19.0105H19.1531V15.2078C19.7357 15.2075 20.3126 15.3219 20.8509 15.5446C21.3893 15.7674 21.8784 16.094 22.2905 16.5058C22.7026 16.9176 23.0294 17.4066 23.2525 17.9448C23.4755 18.483 23.5903 19.0599 23.5903 19.6424V23.4457H13.6758C12.2791 23.4457 10.9397 22.8908 9.95208 21.9032C8.96449 20.9157 8.40967 19.5762 8.40967 18.1795V8.55231Z" fill="white"/>
<path id="Vector_4" d="M19.1531 8.55231C19.7357 8.55198 20.3126 8.66644 20.8509 8.88915C21.3892 9.11186 21.8784 9.43847 22.2905 9.85029C22.7025 10.2621 23.0294 10.7511 23.2524 11.2893C23.4755 11.8275 23.5902 12.4044 23.5902 12.987V14.2544C23.0077 14.2547 22.4307 14.1402 21.8924 13.9175C21.3541 13.6948 20.8649 13.3682 20.4528 12.9564C20.0408 12.5445 19.7139 12.0556 19.4909 11.5174C19.2679 10.9792 19.1531 10.4023 19.1531 9.81971V8.55231Z" fill="#FED500"/>
</g>
<defs>
<clipPath id="clip0_754_127">
<rect width="32" height="32" fill="white"/>
</clipPath>
</defs>
</svg>
