<svg width="35" height="24" viewBox="0 0 35 24" fill="none" xmlns="http://www.w3.org/2000/svg">
<g id="Payment Method/GooglePay">
<rect id="BASE" x="0.5" y="0.5" width="34" height="23" rx="3.5" fill="white" stroke="#D9D9D9"/>
<g id="GooglePay">
<g id="Pay">
<path id="Union" fill-rule="evenodd" clip-rule="evenodd" d="M16.5301 15.758V12.737H18.0893C18.7282 12.737 19.2675 12.5229 19.7071 12.1007L19.8126 11.9937C20.6156 11.1195 20.5629 9.75769 19.7071 8.94893C19.2792 8.52076 18.6931 8.28884 18.0893 8.30073H15.5864V15.758H16.5301ZM16.5303 11.8212V9.21654H18.1131C18.4531 9.21654 18.7756 9.34737 19.0159 9.58524C19.526 10.0848 19.5377 10.9173 19.0453 11.4347C18.8049 11.6904 18.4649 11.8331 18.1131 11.8212H16.5303ZM24.2147 11.0541C23.8102 10.6794 23.2592 10.4891 22.5617 10.4891C21.6649 10.4891 20.9908 10.8222 20.5453 11.4823L21.3777 12.0115C21.6825 11.5596 22.0987 11.3336 22.6262 11.3336C22.9603 11.3336 23.2827 11.4585 23.5347 11.6844C23.7809 11.8985 23.9216 12.2078 23.9216 12.5348V12.7549C23.5582 12.5527 23.101 12.4456 22.5383 12.4456C21.8818 12.4456 21.3542 12.6002 20.9615 12.9154C20.5688 13.2306 20.3695 13.6469 20.3695 14.1761C20.3578 14.6578 20.5629 15.1157 20.9263 15.425C21.2956 15.758 21.7645 15.9245 22.3155 15.9245C22.9662 15.9245 23.482 15.6331 23.8747 15.0503H23.9157V15.758H24.8184V12.6121C24.8184 11.9521 24.6191 11.4287 24.2147 11.0541ZM21.6533 14.8184C21.4599 14.6756 21.3426 14.4437 21.3426 14.194C21.3426 13.9145 21.4716 13.6825 21.7237 13.4982C21.9816 13.3138 22.3041 13.2187 22.6851 13.2187C23.2128 13.2127 23.6231 13.3317 23.9163 13.5695C23.9163 13.9739 23.758 14.3248 23.4473 14.6221C23.1659 14.9076 22.7848 15.0681 22.3862 15.0681C22.1223 15.0741 21.8644 14.9849 21.6533 14.8184ZM26.8465 17.9999L30 10.6557H28.9743L27.5147 14.3189H27.4972L26.0025 10.6557H24.9767L27.0458 15.4309L25.8735 17.9999H26.8465Z" fill="#3C4043"/>
</g>
<g id="G">
<path id="Blue" d="M13.272 12.0828C13.272 11.7914 13.2486 11.5 13.2017 11.2146H9.22168V12.8619H11.5018C11.408 13.3911 11.1032 13.8669 10.6578 14.1642V15.2346H12.0176C12.8148 14.4913 13.272 13.3911 13.272 12.0828Z" fill="#4285F4"/>
<path id="Green" d="M9.22211 16.2694C10.3592 16.2694 11.3205 15.8888 12.0181 15.2346L10.6582 14.1642C10.2772 14.4259 9.79068 14.5745 9.22211 14.5745C8.12013 14.5745 7.18815 13.8193 6.85404 12.8083H5.45312V13.9144C6.16824 15.3595 7.62776 16.2694 9.22211 16.2694Z" fill="#34A853"/>
<path id="Yellow" d="M6.85401 12.8084C6.67814 12.2791 6.67814 11.7023 6.85401 11.167V10.0669H5.45288C4.84904 11.2741 4.84904 12.7013 5.45288 13.9085L6.85401 12.8084Z" fill="#FBBC04"/>
<path id="Red" d="M9.22211 9.4009C9.82585 9.389 10.4061 9.62093 10.8399 10.0431L12.0474 8.81811C11.2795 8.09261 10.2713 7.69418 9.22211 7.70607C7.62776 7.70607 6.16824 8.62187 5.45312 10.0669L6.85404 11.173C7.18815 10.1561 8.12013 9.4009 9.22211 9.4009Z" fill="#EA4335"/>
</g>
</g>
</g>
</svg>
