<svg width="142" height="52" viewBox="0 0 142 52" fill="none" xmlns="http://www.w3.org/2000/svg">
<g id="Group 33667">
<g id="Group 8">
<g id="Unreal">
<path d="M57.2666 37.0165H52.546V25.0549C54.398 24.267 55.9716 23.8731 57.2666 23.8731V37.0165ZM43.2093 37.1183H38.4678V23.3433C38.4678 22.0391 38.9412 20.9387 39.8881 20.0421C40.835 19.1455 41.9421 18.6972 43.2093 18.6972V25.9312C44.4207 24.5183 45.7854 23.2753 47.3032 22.2021C48.835 21.1153 50.4503 20.2595 52.1491 19.6346C53.848 19.0097 55.5538 18.6972 57.2666 18.6972V23.3433C55.6234 23.3433 53.9664 23.7644 52.2954 24.6066C50.6383 25.4353 49.1274 26.5289 47.7627 27.8874C46.3981 29.2459 45.298 30.7334 44.4625 32.35C43.627 33.9666 43.2093 35.5561 43.2093 37.1183Z" fill="white"/>
<path d="M64.4937 37.1183H59.7731V23.3433C59.7731 22.0934 60.2326 21.0066 61.1517 20.0829C62.0707 19.1591 63.1847 18.6972 64.4937 18.6972V25.9312C65.7191 24.5183 67.0907 23.2753 68.6086 22.2021C70.1403 21.1153 71.7487 20.2595 73.4336 19.6346C75.1324 19.0097 76.8452 18.6972 78.5719 18.6972V23.3433C76.9566 23.3433 75.3204 23.7644 73.6633 24.6066C72.0063 25.4353 70.4884 26.5289 69.1099 27.8874C67.7313 29.2459 66.6173 30.7334 65.7678 32.35C64.9184 33.9666 64.4937 35.5561 64.4937 37.1183Z" fill="white"/>
<path d="M99.7728 37.1183H81.0784V23.3433C81.0784 22.0934 81.538 21.0066 82.457 20.0829C83.3761 19.1591 84.4901 18.6972 85.799 18.6972H99.8773V23.3433L92.504 31.8406H86.4674L93.8408 23.3433H85.6946V32.4927H95.0313C96.2985 32.4927 97.4056 32.941 98.3525 33.8376C99.2994 34.7342 99.7728 35.8278 99.7728 37.1183Z" fill="white"/>
<path d="M119.825 37.1183H105.747C104.438 37.1183 103.324 36.6565 102.405 35.7327C101.486 34.8089 101.026 33.7289 101.026 32.4927V30.2308C101.026 28.9402 101.479 27.8466 102.384 26.95C103.289 26.0534 104.375 25.6051 105.642 25.6051H114.979V23.3433H108.713C107.404 23.3433 106.29 22.8814 105.371 21.9576C104.452 21.0202 103.992 19.9334 103.992 18.6972H114.979C116.302 18.6972 117.423 19.1591 118.342 20.0829C119.261 21.0066 119.72 22.0934 119.72 23.3433V30.2308H106.854C106.464 30.2308 106.171 30.3531 105.976 30.5976C105.795 30.8285 105.705 31.0799 105.705 31.3516C105.705 31.6368 105.795 31.9017 105.976 32.1463C106.171 32.3772 106.464 32.4927 106.854 32.4927H119.825V37.1183Z" fill="white"/>
<path d="M141.151 37.1183H127.073C125.806 37.1183 124.699 36.67 123.752 35.7734C122.819 34.8768 122.352 33.7833 122.352 32.4927V17.1893C122.352 15.9531 122.805 14.8731 123.71 13.9493C124.629 13.0255 125.75 12.5636 127.073 12.5636V30.9848C127.073 31.4195 127.212 31.7795 127.491 32.0648C127.783 32.35 128.117 32.4927 128.493 32.4927H134.989L133.778 27.7448H138.624L141.151 37.1183Z" fill="white"/>
</g>
<g id="Role Play">
<path d="M99.4824 42.4613H101.671C102.431 42.4613 102.986 42.6404 103.335 42.9987C103.685 43.348 103.859 43.8899 103.859 44.6243V45.202C103.859 46.1782 103.537 46.7963 102.892 47.056V47.0829C103.25 47.1903 103.501 47.4098 103.644 47.7412C103.796 48.0726 103.872 48.5159 103.872 49.0712V50.7237C103.872 50.9924 103.881 51.2118 103.899 51.382C103.917 51.5432 103.962 51.7044 104.034 51.8657H102.53C102.476 51.7134 102.44 51.5701 102.423 51.4357C102.405 51.3014 102.396 51.0596 102.396 50.7103V48.9906C102.396 48.5607 102.324 48.2606 102.181 48.0905C102.047 47.9203 101.809 47.8352 101.469 47.8352H100.959V51.8657H99.4824V42.4613ZM101.496 46.4917C101.792 46.4917 102.011 46.4156 102.154 46.2633C102.306 46.1111 102.382 45.8558 102.382 45.4976V44.7721C102.382 44.4317 102.32 44.1854 102.194 44.0332C102.078 43.8809 101.89 43.8048 101.63 43.8048H100.959V46.4917H101.496Z" fill="#FED500"/>
<path d="M107.032 52C106.307 52 105.752 51.794 105.367 51.382C104.982 50.97 104.79 50.3878 104.79 49.6355V44.6915C104.79 43.9391 104.982 43.3569 105.367 42.9449C105.752 42.5329 106.307 42.3269 107.032 42.3269C107.757 42.3269 108.312 42.5329 108.696 42.9449C109.081 43.3569 109.274 43.9391 109.274 44.6915V49.6355C109.274 50.3878 109.081 50.97 108.696 51.382C108.312 51.794 107.757 52 107.032 52ZM107.032 50.6565C107.542 50.6565 107.797 50.3475 107.797 49.7295V44.5974C107.797 43.9794 107.542 43.6704 107.032 43.6704C106.522 43.6704 106.266 43.9794 106.266 44.5974V49.7295C106.266 50.3475 106.522 50.6565 107.032 50.6565Z" fill="#FED500"/>
<path d="M110.272 42.4613H111.749V50.5222H114.179V51.8657H110.272V42.4613Z" fill="#FED500"/>
<path d="M114.887 42.4613H118.915V43.8048H116.364V46.2902H118.391V47.6337H116.364V50.5222H118.915V51.8657H114.887V42.4613Z" fill="#FED500"/>
<path d="M121.915 42.4613H124.089C124.823 42.4613 125.374 42.6583 125.741 43.0524C126.108 43.4465 126.291 44.0242 126.291 44.7855V45.7125C126.291 46.4738 126.108 47.0515 125.741 47.4456C125.374 47.8397 124.823 48.0367 124.089 48.0367H123.391V51.8657H121.915V42.4613ZM124.089 46.6933C124.331 46.6933 124.51 46.6261 124.626 46.4917C124.752 46.3574 124.814 46.129 124.814 45.8066V44.6915C124.814 44.369 124.752 44.1406 124.626 44.0063C124.51 43.8719 124.331 43.8048 124.089 43.8048H123.391V46.6933H124.089Z" fill="#FED500"/>
<path d="M127.093 42.4613H128.57V50.5222H131V51.8657H127.093V42.4613Z" fill="#FED500"/>
<path d="M132.902 42.4613H134.902L136.432 51.8657H134.956L134.687 49.9982V50.0251H133.009L132.741 51.8657H131.371L132.902 42.4613ZM134.513 48.7488L133.855 44.1003H133.828L133.184 48.7488H134.513Z" fill="#FED500"/>
<path d="M137.889 47.8621L136.103 42.4613H137.674L138.681 45.914H138.708L139.715 42.4613H141.151L139.365 47.8621V51.8657H137.889V47.8621Z" fill="#FED500"/>
</g>
</g>
<g id="Group 1">
<path id="Vector 1 (Stroke)" fill-rule="evenodd" clip-rule="evenodd" d="M0 0H1.88047C5.40098 0 8.25492 2.85395 8.25492 6.37446V22.7418C8.25492 26.2623 11.1089 29.1162 14.6294 29.1162H25.7988V18.5285H27.697C31.2175 18.5285 34.0715 21.3825 34.0715 24.903V37.4499H9.56169C4.28091 37.4499 0 33.169 0 27.8883V0Z" fill="white"/>
<path id="Rectangle 2" d="M25.7847 0L-nan -nanL25.7847 0C30.3613 -4.00105e-07 34.0715 3.71012 34.0715 8.28679L34.0715 11.729L-nan -nanL34.0715 11.729C29.4948 11.729 25.7847 8.01888 25.7847 3.44221L25.7847 0Z" fill="#FED500"/>
</g>
</g>
</svg>
